<svg width="180" height="180" viewBox="0 0 180 180" fill="none" xmlns="http://www.w3.org/2000/svg">
  <rect width="180" height="180" rx="36" fill="#1A1A1A"/>
  <path d="M90 35C59.6244 35 35 59.6244 35 90C35 120.376 59.6244 145 90 145C120.376 145 145 120.376 145 90C145 59.6244 120.376 35 90 35ZM90 45C114.853 45 135 65.1472 135 90C135 114.853 114.853 135 90 135C65.1472 135 45 114.853 45 90C45 65.1472 65.1472 45 90 45Z" fill="#1A2E4A"/>
  <path d="M90 55L60 125H75L82.5 105H97.5L105 125H120L90 55ZM86.25 95L90 85L93.75 95H86.25Z" fill="white"/>
</svg>